<svg width="218" height="24" viewBox="0 0 218 24" fill="none" xmlns="http://www.w3.org/2000/svg">
<circle cx="12" cy="12" r="11.25" stroke="var(--tg-theme-link-color)" stroke-width="1.5"/>
<path d="M12 8V16" stroke="var(--tg-theme-link-color)" stroke-width="1.5"/>
<path d="M8 12H16" stroke="var(--tg-theme-link-color)" stroke-width="1.5"/>
<path d="M50.6353 20.3657H49.249V16.6553H50.1372C51.0088 16.1904 51.3325 15.1279 51.4238 13.5591L51.8804 6.02197H59.293V16.6553H60.7871V20.3657H59.4009V18H50.6353V20.3657ZM52.8267 13.5923C52.7437 14.9619 52.5776 15.875 51.9883 16.5889V16.6553H57.7988V7.3667H53.2168L52.8267 13.5923ZM65.4538 18.166C63.0549 18.166 61.4528 16.4312 61.4528 13.6836V13.667C61.4528 10.9194 63.0632 9.20117 65.4455 9.20117C67.8278 9.20117 69.4465 10.9111 69.4465 13.667V13.6836C69.4465 16.4395 67.8361 18.166 65.4538 18.166ZM65.4621 16.8877C66.9811 16.8877 67.9689 15.709 67.9689 13.6836V13.667C67.9689 11.6416 66.9728 10.4795 65.4455 10.4795C63.943 10.4795 62.9304 11.6499 62.9304 13.667V13.6836C62.9304 15.7173 63.9347 16.8877 65.4621 16.8877ZM74.3373 18.166C71.6893 18.166 70.2948 16.3813 70.2948 12.9531V12.9365C70.2948 8.18018 71.5565 6.20459 74.91 6.07178L75.5492 6.04688C76.3793 6.01367 77.3089 5.83936 77.7987 5.58203V6.84375C77.5248 7.09277 76.6117 7.30859 75.6156 7.3501L74.9764 7.375C72.6107 7.46631 71.8885 8.4873 71.5316 10.9858L71.515 11.1021H71.5482C72.121 10.0811 73.2084 9.5498 74.5531 9.5498C76.8856 9.5498 78.3714 11.1934 78.3714 13.7583V13.7749C78.3714 16.4893 76.8358 18.166 74.3373 18.166ZM74.3373 16.8877C75.9559 16.8877 76.8939 15.7588 76.8939 13.7749V13.7583C76.8939 11.8823 75.9559 10.8281 74.3373 10.8281C72.7103 10.8281 71.7723 11.8823 71.7723 13.7583V13.7749C71.7723 15.7588 72.7103 16.8877 74.3373 16.8877ZM82.0835 18.166C80.3653 18.166 79.2115 17.1284 79.2115 15.5596V15.543C79.2115 14.0737 80.357 13.1523 82.3409 13.0361L84.8145 12.895V12.1729C84.8145 11.1187 84.1255 10.4795 82.9219 10.4795C81.8096 10.4795 81.1123 11.0107 80.9463 11.7827L80.9297 11.8574H79.5352L79.5435 11.7661C79.668 10.3467 80.9048 9.20117 82.9385 9.20117C84.9805 9.20117 86.2588 10.3052 86.2588 12.0317V18H84.8145V16.5972H84.7813C84.2749 17.5435 83.2373 18.166 82.0835 18.166ZM80.689 15.5596C80.689 16.3896 81.3697 16.9126 82.4073 16.9126C83.7686 16.9126 84.8145 15.9746 84.8145 14.7212V14.0156L82.5069 14.1567C81.3531 14.2231 80.689 14.7378 80.689 15.543V15.5596ZM87.821 18V9.36719H91.5149C93.1335 9.36719 94.1213 10.2222 94.1213 11.5918V11.6084C94.1213 12.4966 93.4987 13.3101 92.7019 13.4761V13.5425C93.7893 13.6919 94.5031 14.4556 94.5031 15.5098V15.5264C94.5031 17.0454 93.3742 18 91.5398 18H87.821ZM89.2654 12.978H91.0832C92.1706 12.978 92.6853 12.5879 92.6853 11.7578V11.7412C92.6853 10.9692 92.2038 10.5625 91.299 10.5625H89.2654V12.978ZM89.2654 16.8047H91.4153C92.4612 16.8047 93.0256 16.3564 93.0256 15.4932V15.4766C93.0256 14.5884 92.4196 14.1733 91.1579 14.1733H89.2654V16.8047ZM95.725 18V9.36719H97.1693V15.7837H97.2357L101.536 9.36719H102.963V18H101.519V11.5835H101.453L97.1527 18H95.725ZM110.876 9.36719V10.5625H108.095V18H106.65V10.5625H103.87V9.36719H110.876ZM111.782 18V9.36719H113.226V12.123H114.845C116.821 12.123 118.091 13.2603 118.091 15.0532V15.0698C118.091 16.8628 116.821 18 114.845 18H111.782ZM114.82 13.3184H113.226V16.8047H114.82C115.924 16.8047 116.613 16.1157 116.613 15.0698V15.0532C116.613 13.999 115.916 13.3184 114.82 13.3184ZM127.963 18V14.1235H123.738V18H122.294V9.36719H123.738V12.9282H127.963V9.36719H129.408V18H127.963ZM134.597 18.166C132.199 18.166 130.596 16.4312 130.596 13.6836V13.667C130.596 10.9194 132.207 9.20117 134.589 9.20117C136.971 9.20117 138.59 10.9111 138.59 13.667V13.6836C138.59 16.4395 136.98 18.166 134.597 18.166ZM134.606 16.8877C136.125 16.8877 137.113 15.709 137.113 13.6836V13.667C137.113 11.6416 136.117 10.4795 134.589 10.4795C133.087 10.4795 132.074 11.6499 132.074 13.667V13.6836C132.074 15.7173 133.078 16.8877 134.606 16.8877ZM139.779 18V9.36719H143.473C145.091 9.36719 146.079 10.2222 146.079 11.5918V11.6084C146.079 12.4966 145.457 13.3101 144.66 13.4761V13.5425C145.747 13.6919 146.461 14.4556 146.461 15.5098V15.5264C146.461 17.0454 145.332 18 143.498 18H139.779ZM141.223 12.978H143.041C144.128 12.978 144.643 12.5879 144.643 11.7578V11.7412C144.643 10.9692 144.162 10.5625 143.257 10.5625H141.223V12.978ZM141.223 16.8047H143.373C144.419 16.8047 144.983 16.3564 144.983 15.4932V15.4766C144.983 14.5884 144.377 14.1733 143.116 14.1733H141.223V16.8047ZM148.438 20.9053C148.156 20.9053 147.849 20.8721 147.666 20.8389V19.6602C147.791 19.6851 147.957 19.71 148.131 19.71C149.044 19.71 149.55 19.4775 149.899 18.498L150.073 18.0083L146.869 9.36719H148.413L150.796 16.5557H150.829L153.219 9.36719H154.738L151.368 18.5396C150.754 20.1914 149.999 20.9053 148.438 20.9053ZM155.603 18V9.36719H157.048V12.9282H158.534C158.791 10.5957 160.219 9.20117 162.41 9.20117C164.834 9.20117 166.328 10.8945 166.328 13.6753V13.6919C166.328 16.4644 164.834 18.166 162.41 18.166C160.119 18.166 158.666 16.6387 158.5 14.1235H157.048V18H155.603ZM162.41 16.8877C163.971 16.8877 164.85 15.7173 164.85 13.6919V13.6753C164.85 11.6416 163.971 10.4795 162.41 10.4795C160.849 10.4795 159.97 11.6416 159.97 13.6753V13.6919C159.97 15.7173 160.849 16.8877 162.41 16.8877ZM171.403 20.9053C171.121 20.9053 170.814 20.8721 170.631 20.8389V19.6602C170.756 19.6851 170.922 19.71 171.096 19.71C172.009 19.71 172.515 19.4775 172.864 18.498L173.038 18.0083L169.834 9.36719H171.378L173.76 16.5557H173.794L176.184 9.36719H177.703L174.333 18.5396C173.719 20.1914 172.964 20.9053 171.403 20.9053ZM181.905 18.166C179.456 18.166 177.904 16.4229 177.904 13.6753V13.667C177.904 10.9443 179.49 9.20117 181.889 9.20117C184.038 9.20117 185.308 10.6289 185.491 12.1064L185.499 12.1729H184.088L184.072 12.1064C183.856 11.2432 183.159 10.4795 181.889 10.4795C180.386 10.4795 179.382 11.7246 179.382 13.6836V13.6919C179.382 15.7007 180.411 16.8877 181.905 16.8877C183.084 16.8877 183.839 16.2236 184.08 15.2607L184.097 15.1943H185.516L185.508 15.2524C185.275 16.896 183.856 18.166 181.905 18.166ZM188.888 14.1982C188.705 16.5806 188.149 18.083 186.315 18.083C186.041 18.083 185.825 18.0415 185.709 18V16.6968C185.783 16.7217 185.941 16.7549 186.165 16.7549C187.086 16.7549 187.402 15.7505 187.518 14.165L187.858 9.36719H193.926V18H192.482V10.5625H189.162L188.888 14.1982ZM196.377 20.9053C196.094 20.9053 195.787 20.8721 195.605 20.8389V19.6602C195.729 19.6851 195.895 19.71 196.07 19.71C196.983 19.71 197.489 19.4775 197.838 18.498L198.012 18.0083L194.808 9.36719H196.352L198.734 16.5557H198.767L201.158 9.36719H202.677L199.307 18.5396C198.693 20.1914 197.937 20.9053 196.377 20.9053ZM209.095 10.5625H204.986V18H203.542V9.36719H209.095V10.5625ZM211.072 20.9053C210.79 20.9053 210.483 20.8721 210.3 20.8389V19.6602C210.425 19.6851 210.591 19.71 210.765 19.71C211.678 19.71 212.185 19.4775 212.533 18.498L212.708 18.0083L209.504 9.36719H211.047L213.43 16.5557H213.463L215.854 9.36719H217.373L214.003 18.5396C213.388 20.1914 212.633 20.9053 211.072 20.9053Z" fill="var(--tg-theme-link-color)"/>
</svg>
