<svg width="16" height="16" viewBox="0 0 16 16" fill="none" xmlns="http://www.w3.org/2000/svg">
<path d="M5.88574 15.4692C5.44303 15.4692 5.06673 15.2783 4.75684 14.8965L0.457031 9.60059C0.335286 9.45671 0.246745 9.31559 0.191406 9.17725C0.141602 9.0389 0.116699 8.89502 0.116699 8.74561C0.116699 8.41357 0.227376 8.13965 0.44873 7.92383C0.670085 7.70801 0.949544 7.6001 1.28711 7.6001C1.66895 7.6001 1.98991 7.76335 2.25 8.08984L5.85254 12.6553L12.8833 1.51562C13.0272 1.29427 13.1766 1.13932 13.3315 1.05078C13.4865 0.956706 13.6802 0.909668 13.9126 0.909668C14.2502 0.909668 14.5269 1.01481 14.7427 1.2251C14.9585 1.43538 15.0664 1.70378 15.0664 2.03027C15.0664 2.16309 15.0443 2.2959 15 2.42871C14.9557 2.56152 14.8866 2.69987 14.7925 2.84375L7.02295 14.8633C6.75732 15.2673 6.37826 15.4692 5.88574 15.4692Z" fill="#007AFF"/>
</svg>
