<svg width="131" height="19" viewBox="0 0 131 19" fill="none" xmlns="http://www.w3.org/2000/svg">
<path d="M4.50342 18.5151C3.2998 18.5151 2.51953 17.7515 2.46143 16.5645L1.88037 4.48682H0.892578C0.560547 4.48682 0.27002 4.20459 0.27002 3.85596C0.27002 3.51562 0.560547 3.2334 0.892578 3.2334H4.66113V1.96338C4.66113 0.759766 5.44141 0.0292969 6.71973 0.0292969H9.87402C11.1523 0.0292969 11.9326 0.759766 11.9326 1.96338V3.2334H15.7261C16.0664 3.2334 16.3403 3.51562 16.3403 3.85596C16.3403 4.19629 16.0664 4.48682 15.7261 4.48682H14.73L14.1572 16.5562C14.0991 17.7432 13.3022 18.5151 12.1152 18.5151H4.50342ZM5.98096 2.04639V3.2334H10.6128V2.04639C10.6128 1.57324 10.2808 1.26611 9.78271 1.26611H6.81104C6.31299 1.26611 5.98096 1.57324 5.98096 2.04639ZM5.77344 15.9917C6.09717 15.9917 6.31299 15.7925 6.30469 15.4854L6.03906 6.33789C6.03076 6.03076 5.81494 5.83984 5.50781 5.83984C5.17578 5.83984 4.96826 6.03906 4.97656 6.34619L5.22559 15.4854C5.24219 15.8008 5.44971 15.9917 5.77344 15.9917ZM8.30518 15.9917C8.62891 15.9917 8.86133 15.7925 8.86133 15.4854V6.34619C8.86133 6.03906 8.62891 5.83984 8.30518 5.83984C7.98145 5.83984 7.75732 6.03906 7.75732 6.34619V15.4854C7.75732 15.7925 7.98145 15.9917 8.30518 15.9917ZM10.8452 15.9917C11.1606 15.9917 11.3682 15.8008 11.3848 15.4854L11.6338 6.34619C11.6421 6.03906 11.4346 5.83984 11.1025 5.83984C10.7954 5.83984 10.5796 6.03076 10.5713 6.34619L10.314 15.4854C10.3057 15.7925 10.5215 15.9917 10.8452 15.9917ZM22.6605 16.083C22.3866 16.083 22.1293 16.0415 21.9964 15.9751V14.6387C22.1625 14.6802 22.4032 14.7051 22.6605 14.7051C23.557 14.7051 24.1463 14.3232 24.6195 13.4434L20.5272 4.02197H22.121L25.3334 11.7832H25.4662L28.6039 4.02197H30.1561L26.4872 12.5718C25.35 15.228 24.4203 16.083 22.6605 16.083ZM30.606 18.3657H29.2613V14.8047H29.9834C30.6143 14.3896 30.9214 13.3188 31.0044 12.1567L31.3365 7.36719H37.2798V14.8047H38.6495V18.3657H37.3047V16H30.606V18.3657ZM35.8355 14.8047V8.5625H32.6065L32.3409 12.1899C32.2662 13.2773 32.042 14.2153 31.6104 14.7715V14.8047H35.8355ZM42.0461 16.166C40.3279 16.166 39.174 15.1284 39.174 13.5596V13.543C39.174 12.0737 40.3195 11.1523 42.3034 11.0361L44.7771 10.895V10.1729C44.7771 9.11865 44.0881 8.47949 42.8845 8.47949C41.7722 8.47949 41.0749 9.01074 40.9089 9.78271L40.8923 9.85742H39.4978L39.5061 9.76611C39.6306 8.34668 40.8674 7.20117 42.9011 7.20117C44.9431 7.20117 46.2214 8.30518 46.2214 10.0317V16H44.7771V14.5972H44.7439C44.2375 15.5435 43.1999 16.166 42.0461 16.166ZM40.6516 13.5596C40.6516 14.3896 41.3322 14.9126 42.3698 14.9126C43.7312 14.9126 44.7771 13.9746 44.7771 12.7212V12.0156L42.4695 12.1567C41.3156 12.2231 40.6516 12.7378 40.6516 13.543V13.5596ZM50.1825 12.1982C49.9999 14.5806 49.4437 16.083 47.6093 16.083C47.3354 16.083 47.1195 16.0415 47.0033 16V14.6968C47.078 14.7217 47.2357 14.7549 47.4599 14.7549C48.3812 14.7549 48.6967 13.7505 48.8129 12.165L49.1532 7.36719H55.2211V16H53.7768V8.5625H50.4564L50.1825 12.1982ZM56.8331 16V7.36719H58.2774V13.7837H58.3438L62.6436 7.36719H64.0714V16H62.627V9.5835H62.5606L58.2608 16H56.8331ZM71.9837 7.36719V8.5625H69.2029V16H67.7586V8.5625H64.9778V7.36719H71.9837ZM72.8901 16V7.36719H74.3344V10.123H75.9531C77.9286 10.123 79.1987 11.2603 79.1987 13.0532V13.0698C79.1987 14.8628 77.9286 16 75.9531 16H72.8901ZM75.9282 11.3184H74.3344V14.8047H75.9282C77.0322 14.8047 77.7211 14.1157 77.7211 13.0698V13.0532C77.7211 11.999 77.0239 11.3184 75.9282 11.3184ZM84.2405 18.9053C83.9583 18.9053 83.6512 18.8721 83.4686 18.8389V17.6602C83.5931 17.6851 83.7591 17.71 83.9334 17.71C84.8465 17.71 85.3528 17.4775 85.7015 16.498L85.8758 16.0083L82.6717 7.36719H84.2156L86.5979 14.5557H86.6311L89.0218 7.36719H90.5408L87.1707 16.5396C86.5564 18.1914 85.8011 18.9053 84.2405 18.9053ZM94.7427 16.166C92.2939 16.166 90.7417 14.4229 90.7417 11.6753V11.667C90.7417 8.94434 92.3271 7.20117 94.7261 7.20117C96.876 7.20117 98.146 8.62891 98.3286 10.1064L98.3369 10.1729H96.9258L96.9092 10.1064C96.6933 9.24316 95.9961 8.47949 94.7261 8.47949C93.2236 8.47949 92.2192 9.72461 92.2192 11.6836V11.6919C92.2192 13.7007 93.2485 14.8877 94.7427 14.8877C95.9214 14.8877 96.6767 14.2236 96.9175 13.2607L96.9341 13.1943H98.3535L98.3452 13.2524C98.1128 14.896 96.6933 16.166 94.7427 16.166ZM101.725 12.1982C101.543 14.5806 100.986 16.083 99.152 16.083C98.8781 16.083 98.6623 16.0415 98.5461 16V14.6968C98.6208 14.7217 98.7785 14.7549 99.0026 14.7549C99.924 14.7549 100.239 13.7505 100.356 12.165L100.696 7.36719H106.764V16H105.319V8.5625H101.999L101.725 12.1982ZM109.214 18.9053C108.932 18.9053 108.625 18.8721 108.442 18.8389V17.6602C108.567 17.6851 108.733 17.71 108.907 17.71C109.82 17.71 110.327 17.4775 110.675 16.498L110.849 16.0083L107.645 7.36719H109.189L111.572 14.5557H111.605L113.995 7.36719H115.514L112.144 16.5396C111.53 18.1914 110.775 18.9053 109.214 18.9053ZM121.933 8.5625H117.824V16H116.379V7.36719H121.933V8.5625ZM123.91 18.9053C123.628 18.9053 123.321 18.8721 123.138 18.8389V17.6602C123.262 17.6851 123.428 17.71 123.603 17.71C124.516 17.71 125.022 17.4775 125.371 16.498L125.545 16.0083L122.341 7.36719H123.885L126.267 14.5557H126.3L128.691 7.36719H130.21L126.84 16.5396C126.226 18.1914 125.47 18.9053 123.91 18.9053Z" fill="#FF3B30"/>
</svg>
