<svg width="18" height="19" viewBox="0 0 18 19" fill="none" xmlns="http://www.w3.org/2000/svg">
<path d="M5.19824 18.5151C3.99463 18.5151 3.21436 17.7515 3.15625 16.5645L2.5752 4.48682H1.5874C1.25537 4.48682 0.964844 4.20459 0.964844 3.85596C0.964844 3.51562 1.25537 3.2334 1.5874 3.2334H5.35596V1.96338C5.35596 0.759766 6.13623 0.0292969 7.41455 0.0292969H10.5688C11.8472 0.0292969 12.6274 0.759766 12.6274 1.96338V3.2334H16.4209C16.7612 3.2334 17.0352 3.51562 17.0352 3.85596C17.0352 4.19629 16.7612 4.48682 16.4209 4.48682H15.4248L14.8521 16.5562C14.7939 17.7432 13.9971 18.5151 12.8101 18.5151H5.19824ZM6.67578 2.04639V3.2334H11.3076V2.04639C11.3076 1.57324 10.9756 1.26611 10.4775 1.26611H7.50586C7.00781 1.26611 6.67578 1.57324 6.67578 2.04639ZM6.46826 15.9917C6.79199 15.9917 7.00781 15.7925 6.99951 15.4854L6.73389 6.33789C6.72559 6.03076 6.50977 5.83984 6.20264 5.83984C5.87061 5.83984 5.66309 6.03906 5.67139 6.34619L5.92041 15.4854C5.93701 15.8008 6.14453 15.9917 6.46826 15.9917ZM9 15.9917C9.32373 15.9917 9.55615 15.7925 9.55615 15.4854V6.34619C9.55615 6.03906 9.32373 5.83984 9 5.83984C8.67627 5.83984 8.45215 6.03906 8.45215 6.34619V15.4854C8.45215 15.7925 8.67627 15.9917 9 15.9917ZM11.54 15.9917C11.8555 15.9917 12.063 15.8008 12.0796 15.4854L12.3286 6.34619C12.3369 6.03906 12.1294 5.83984 11.7974 5.83984C11.4902 5.83984 11.2744 6.03076 11.2661 6.34619L11.0088 15.4854C11.0005 15.7925 11.2163 15.9917 11.54 15.9917Z" fill="#FF3B30"/>
</svg>
