<svg width="7" height="13" viewBox="0 0 7 13" fill="none" xmlns="http://www.w3.org/2000/svg">
<path d="M6.9375 6.27979C6.9375 6.57031 6.83789 6.81104 6.60547 7.03516L1.625 11.9575C1.44238 12.1401 1.21826 12.2314 0.960938 12.2314C0.421387 12.2314 -0.0102539 11.8081 -0.0102539 11.2769C-0.0102539 11.0112 0.105957 10.7705 0.296875 10.5796L4.65479 6.27979L0.296875 1.97998C0.105957 1.78906 -0.0102539 1.54834 -0.0102539 1.28271C-0.0102539 0.751465 0.421387 0.328125 0.960938 0.328125C1.22656 0.328125 1.44238 0.419434 1.625 0.602051L6.60547 5.52441C6.82959 5.74854 6.9375 5.98926 6.9375 6.27979Z" fill="#007AFF"/>
</svg>
