<svg width="7" height="12" viewBox="0 0 7 12" fill="none" xmlns="http://www.w3.org/2000/svg">
<path d="M6.9375 6.00684C6.9375 6.15072 6.90983 6.28353 6.85449 6.40527C6.79915 6.52702 6.71338 6.646 6.59717 6.76221L1.625 11.6846C1.44238 11.8672 1.22103 11.9585 0.960938 11.9585C0.689779 11.9585 0.460124 11.8672 0.271973 11.6846C0.0838216 11.4964 -0.0102539 11.2695 -0.0102539 11.0039C-0.0102539 10.7383 0.0921224 10.5031 0.296875 10.2983L4.65479 6.00684L0.296875 1.71533C0.0921224 1.51058 -0.0102539 1.27539 -0.0102539 1.00977C-0.0102539 0.744141 0.0838216 0.52002 0.271973 0.337402C0.460124 0.149251 0.689779 0.0551758 0.960938 0.0551758C1.22103 0.0551758 1.44238 0.146484 1.625 0.329102L6.59717 5.25146C6.82406 5.46729 6.9375 5.71908 6.9375 6.00684Z" fill="#3C3C43" fill-opacity="0.3"/>
</svg>
