<svg width="12" height="16" viewBox="0 0 12 16" fill="none" xmlns="http://www.w3.org/2000/svg">
<path d="M6.44287 0.0131836C6.65039 0.0131836 6.84131 0.0961914 7.00732 0.262207L11.7471 4.81104C11.8799 4.93555 11.9629 5.10986 11.9629 5.35059C11.9629 5.78223 11.6392 6.11426 11.2075 6.11426C11.0249 6.11426 10.834 6.05615 10.6514 5.89014L6.44287 1.76465L2.22607 5.89014C2.05176 6.06445 1.85254 6.11426 1.66992 6.11426C1.23828 6.11426 0.914551 5.78223 0.914551 5.35059C0.914551 5.10986 1.00586 4.93555 1.13037 4.81104L5.87012 0.262207C6.03613 0.0961914 6.22705 0.0131836 6.44287 0.0131836ZM6.44287 16.0005C6.22705 16.0005 6.03613 15.9092 5.87012 15.7515L1.13037 11.2026C1.00586 11.0698 0.914551 10.9038 0.914551 10.6548C0.914551 10.2231 1.23828 9.89941 1.66992 9.89941C1.85254 9.89941 2.05176 9.94922 2.22607 10.1235L6.44287 14.249L10.6514 10.1235C10.834 9.95752 11.0249 9.89941 11.2075 9.89941C11.6392 9.89941 11.9629 10.2231 11.9629 10.6548C11.9629 10.9038 11.8799 11.0698 11.7471 11.2026L7.00732 15.7515C6.84131 15.9092 6.65039 16.0005 6.44287 16.0005Z" fill="#8E8E93"/>
</svg>
