<svg width="21" height="20" viewBox="0 0 21 20" fill="none" xmlns="http://www.w3.org/2000/svg">
<path d="M18.915 1.76855C19.4092 2.2627 19.7314 2.86068 19.8818 3.5625C20.0322 4.26432 20.1074 5.10221 20.1074 6.07617V14.4014C20.1074 15.3825 20.0322 16.224 19.8818 16.9258C19.7314 17.6204 19.4092 18.2184 18.915 18.7197C18.4137 19.2139 17.8086 19.5397 17.0996 19.6973C16.3978 19.8548 15.5599 19.9336 14.5859 19.9336H6.26074C5.28678 19.9336 4.44531 19.8548 3.73633 19.6973C3.03451 19.5397 2.43294 19.2139 1.93164 18.7197C1.4375 18.2256 1.11523 17.6276 0.964844 16.9258C0.814453 16.224 0.739258 15.3825 0.739258 14.4014V6.01172C0.739258 5.07357 0.814453 4.25716 0.964844 3.5625C1.1224 2.86784 1.44824 2.26986 1.94238 1.76855C2.43652 1.27441 3.03451 0.948568 3.73633 0.791016C4.43815 0.633464 5.25814 0.554688 6.19629 0.554688H14.5859C15.5599 0.554688 16.3978 0.633464 17.0996 0.791016C17.8086 0.948568 18.4137 1.27441 18.915 1.76855ZM18.7861 5.79688C18.7861 5.15951 18.7253 4.57227 18.6035 4.03516C18.4889 3.49805 18.2669 3.06836 17.9375 2.74609C17.6081 2.40951 17.1712 2.18034 16.627 2.05859C16.0898 1.93685 15.5062 1.87598 14.876 1.87598H6.0459C5.37988 1.87598 4.77116 1.93685 4.21973 2.05859C3.66829 2.18034 3.22786 2.40592 2.89844 2.73535C2.57617 3.06478 2.35417 3.50163 2.23242 4.0459C2.11784 4.59017 2.06055 5.19531 2.06055 5.86133V14.6914C2.06055 15.3288 2.11784 15.916 2.23242 16.4531C2.35417 16.9831 2.57975 17.4128 2.90918 17.7422C3.23861 18.0716 3.67188 18.2972 4.20898 18.4189C4.75326 18.5479 5.34049 18.6123 5.9707 18.6123H14.876C15.5062 18.6123 16.0898 18.5514 16.627 18.4297C17.1712 18.3079 17.6081 18.0788 17.9375 17.7422C18.2598 17.4128 18.4818 16.9831 18.6035 16.4531C18.7253 15.916 18.7861 15.3288 18.7861 14.6914V5.79688ZM5.55176 10.2441C5.55176 10.0365 5.61621 9.86816 5.74512 9.73926C5.87402 9.61035 6.0459 9.5459 6.26074 9.5459H9.74121V6.05469C9.74121 5.84701 9.80566 5.67871 9.93457 5.5498C10.0635 5.41374 10.2246 5.3457 10.418 5.3457C10.6257 5.3457 10.7939 5.41016 10.9229 5.53906C11.0518 5.66797 11.1162 5.83984 11.1162 6.05469V9.5459H14.6182C14.8187 9.5459 14.9834 9.61035 15.1123 9.73926C15.2412 9.86816 15.3057 10.0365 15.3057 10.2441C15.3057 10.4375 15.2412 10.5986 15.1123 10.7275C14.9834 10.8493 14.8187 10.9102 14.6182 10.9102H11.1162V14.4121C11.1162 14.6198 11.0518 14.7881 10.9229 14.917C10.7939 15.0459 10.6257 15.1104 10.418 15.1104C10.2246 15.1104 10.0635 15.0459 9.93457 14.917C9.80566 14.7809 9.74121 14.6126 9.74121 14.4121V10.9102H6.26074C6.05306 10.9102 5.88118 10.8493 5.74512 10.7275C5.61621 10.5986 5.55176 10.4375 5.55176 10.2441Z" fill="#2ea6ff"/>
</svg>
